<?xml version="1.0" standalone="no"?>
<!DOCTYPE svg PUBLIC "-//W3C//DTD SVG 20010904//EN"
 "http://www.w3.org/TR/2001/REC-SVG-20010904/DTD/svg10.dtd">
<svg version="1.0" xmlns="http://www.w3.org/2000/svg"
 width="790.000000pt" height="572.000000pt" viewBox="0 0 790.000000 572.000000"
 preserveAspectRatio="xMidYMid meet">
<metadata>
Created by potrace 1.15, written by Peter Selinger 2001-2017
</metadata>
<g transform="translate(0.000000,572.000000) scale(0.100000,-0.100000)"
fill="#000000" stroke="none">
<path d="M4243 4361 c-45 -7 -83 -43 -83 -81 0 -11 -7 -34 -16 -51 -8 -16 -12
-39 -9 -50 4 -11 2 -25 -3 -32 -14 -18 -24 -79 -12 -72 6 3 10 2 10 -4 0 -5
-5 -13 -11 -17 -7 -4 -9 -24 -5 -58 4 -28 7 -61 8 -74 0 -22 1 -22 18 -7 16
15 19 15 34 0 19 -20 19 -25 1 -48 -11 -16 -11 -21 3 -36 16 -15 18 -13 33 34
l17 50 6 -45 c11 -75 11 -103 2 -160 -7 -53 -10 -57 -52 -79 -59 -32 -130
-109 -162 -179 -24 -50 -27 -69 -27 -162 0 -99 2 -110 32 -171 31 -62 93 -131
151 -169 l23 -15 -20 -45 c-25 -54 -26 -83 -6 -100 8 -7 15 -20 15 -30 0 -24
30 -57 59 -65 22 -7 23 -5 17 16 -12 42 -23 139 -18 171 5 30 5 30 50 24 62
-8 68 -16 53 -68 -12 -40 -12 -43 10 -61 13 -10 39 -32 57 -48 27 -24 41 -29
70 -27 40 3 54 23 22 33 -13 4 -31 28 -46 63 -49 108 -51 97 24 121 127 41
214 129 253 254 29 92 24 198 -14 279 -29 66 -100 146 -152 174 -32 17 -36 22
-31 49 3 17 9 79 12 138 4 59 11 110 16 113 17 11 7 72 -19 110 -24 36 -27 48
-28 149 -2 133 -14 170 -57 179 -36 7 -166 5 -225 -3z m48 -968 c10 -64 10
-72 -10 -112 -12 -23 -25 -66 -28 -94 -9 -79 -16 -85 -48 -43 -58 76 -70 169
-33 246 l22 45 4 -30 c5 -38 19 -55 44 -55 14 0 18 5 14 16 -3 8 -3 40 1 71 7
67 18 54 34 -44z m273 23 c82 -132 11 -314 -136 -350 -27 -6 -28 -5 -28 34 0
22 6 55 14 73 7 18 16 55 20 82 10 61 76 217 90 212 6 -2 24 -25 40 -51z"/>
<path d="M6670 3844 c-210 -31 -196 -27 -217 -67 -57 -110 -78 -280 -69 -555
4 -119 7 -226 7 -236 0 -11 -29 -63 -65 -115 -96 -141 -120 -199 -113 -273 4
-42 14 -74 35 -107 l29 -48 6 -229 c5 -229 25 -402 62 -559 9 -38 19 -113 21
-165 12 -264 70 -470 218 -769 38 -78 48 -110 70 -243 15 -84 36 -180 47 -213
12 -33 33 -106 48 -162 l26 -103 227 0 c261 0 237 -12 219 104 -6 34 -15 97
-21 141 -18 118 -55 226 -104 299 l-43 64 18 139 c34 254 96 522 115 492 4 -7
8 -68 9 -134 0 -66 5 -126 9 -134 5 -8 12 -50 15 -95 6 -81 6 -81 34 -81 26 1
27 0 11 -12 -10 -7 -23 -13 -30 -13 -10 0 -24 -21 -24 -36 0 -10 63 -3 95 10
39 17 48 32 65 106 11 52 10 64 -23 190 -32 122 -36 156 -46 351 -12 239 -24
348 -49 459 -12 52 -17 119 -17 220 0 128 4 163 35 298 27 124 36 149 43 130
5 -12 6 -47 3 -77 -5 -58 5 -90 49 -150 22 -29 24 -41 19 -81 -4 -31 -2 -50 5
-54 6 -4 11 0 11 10 0 10 5 32 12 50 10 27 8 39 -10 82 -32 73 -27 79 18 27
22 -25 40 -53 40 -61 0 -8 4 -14 9 -14 13 0 1 42 -19 65 -48 55 -53 112 -14
168 14 21 30 62 36 91 10 47 9 63 -10 127 -30 99 -27 110 6 24 23 -59 26 -84
25 -165 0 -78 1 -88 8 -55 20 89 21 124 5 171 -23 68 -19 85 9 39 21 -33 25
-53 25 -116 0 -73 2 -78 38 -123 45 -55 53 -44 18 24 -22 43 -25 58 -20 104 6
48 3 63 -23 118 -17 35 -34 80 -37 101 l-7 38 41 -45 c47 -51 63 -95 54 -148
-3 -21 -2 -52 2 -70 6 -30 8 -26 20 42 15 87 13 103 -32 191 -19 36 -34 68
-34 72 0 3 14 -7 31 -23 24 -22 34 -41 40 -81 12 -73 30 -88 23 -18 -6 52 -10
62 -45 125 -9 16 -19 54 -22 84 l-6 55 26 -44 c34 -55 40 -40 13 28 -11 28
-20 68 -20 87 0 21 -12 57 -27 84 -25 44 -26 52 -15 83 20 55 14 82 -34 174
-37 71 -45 96 -43 133 3 80 -1 96 -28 127 -16 16 -42 46 -58 67 l-30 38 -200
24 c-180 21 -415 29 -495 18z m341 -144 c18 -10 18 -13 -13 -53 -18 -23 -58
-70 -89 -103 -66 -72 -89 -130 -89 -219 0 -49 -6 -75 -30 -121 -31 -64 -90
-128 -97 -107 -2 6 -19 31 -36 54 -59 78 -58 73 -51 267 l7 178 95 39 c166 68
260 88 303 65z m28 -1988 c22 -55 6 -46 -46 25 -74 104 -82 118 -98 180 -32
122 -17 187 71 303 l49 64 6 -269 c4 -185 10 -280 18 -303z"/>
<path d="M2894 3661 c-73 -33 -114 -107 -115 -206 -1 -120 42 -171 193 -226
99 -35 126 -102 68 -161 -26 -26 -36 -30 -66 -25 -48 8 -62 22 -75 73 l-11 44
-70 0 -70 0 7 -47 c14 -102 76 -182 157 -204 80 -21 194 6 239 57 54 61 80
175 59 254 -18 66 -80 124 -155 145 -122 35 -142 53 -135 120 8 75 140 70 140
-5 0 -18 7 -20 71 -20 l72 0 -7 41 c-8 48 -36 107 -63 131 -54 49 -166 62
-239 29z"/>
<path d="M3550 3671 c-105 -35 -193 -111 -246 -212 -27 -50 -29 -62 -29 -164
0 -104 2 -114 32 -176 39 -80 111 -150 191 -187 49 -23 70 -27 147 -27 106 0
156 13 222 59 43 29 133 142 133 167 0 5 -42 9 -92 9 -89 -1 -94 -2 -122 -30
-60 -61 -182 -68 -258 -14 -129 90 -129 298 0 388 76 54 197 47 263 -15 30
-28 35 -29 124 -29 l94 0 -24 43 c-42 75 -93 125 -162 159 -58 28 -77 33 -157
35 -50 1 -102 -1 -116 -6z"/>
<path d="M2275 3658 c-3 -7 -4 -177 -3 -378 l3 -365 205 0 205 0 0 70 0 70
-127 3 -128 3 0 84 0 85 130 0 131 0 -3 68 -3 67 -127 3 -128 3 0 79 0 80 130
0 131 0 -3 68 -3 67 -203 3 c-157 2 -204 0 -207 -10z"/>
<path d="M4788 3664 c-5 -4 -8 -176 -8 -381 l0 -374 78 3 77 3 5 157 5 157 89
-159 88 -160 90 0 c69 0 89 3 85 13 -2 7 -44 73 -91 147 l-87 135 28 9 c81 26
133 98 141 193 9 111 -37 193 -130 233 -46 21 -74 24 -208 28 -85 2 -158 1
-162 -4z m301 -149 c18 -9 34 -28 41 -50 29 -88 -34 -155 -146 -155 l-44 0 0
116 0 117 60 -6 c33 -4 74 -13 89 -22z"/>
<path d="M5320 3600 l0 -70 70 0 70 0 0 -310 0 -310 75 0 75 0 0 310 0 310 70
0 70 0 0 70 0 70 -215 0 -215 0 0 -70z"/>
<path d="M2810 2510 l0 -160 35 0 34 0 3 63 3 62 24 -45 c34 -66 50 -80 88
-80 18 0 33 2 33 5 0 3 -16 29 -35 58 -19 28 -35 54 -35 58 0 3 11 11 24 17
37 17 53 79 32 120 -23 44 -63 62 -141 62 l-65 0 0 -160z"/>
<path d="M3330 2510 l0 -160 85 0 85 0 0 30 c0 29 -1 30 -50 30 l-50 0 0 35 0
35 50 0 c49 0 50 1 50 30 0 29 -1 30 -50 30 l-50 0 0 35 0 35 50 0 c49 0 50 1
50 30 l0 30 -85 0 -85 0 0 -160z"/>
<path d="M3838 2522 c-32 -82 -58 -154 -58 -161 0 -8 12 -11 32 -9 27 2 34 9
42 36 9 31 10 32 67 32 57 0 58 0 69 -35 10 -31 15 -35 46 -35 42 0 44 -14
-31 180 -50 127 -55 135 -81 138 -29 3 -30 0 -86 -146z"/>
<path d="M4342 2513 l3 -158 86 1 c71 1 92 4 116 22 45 32 66 84 61 149 -9
101 -64 143 -191 143 l-78 0 3 -157z m151 86 c14 -6 30 -22 36 -36 14 -30 14
-88 1 -113 -10 -20 -59 -40 -96 -40 -24 0 -24 2 -24 100 l0 100 30 0 c16 0 40
-5 53 -11z"/>
<path d="M4870 2665 c0 -3 20 -50 45 -105 36 -79 45 -111 45 -155 0 -54 0 -55
30 -55 30 0 30 1 30 55 0 44 9 76 45 155 25 55 45 102 45 105 0 3 -15 5 -34 5
-32 0 -35 -3 -59 -62 l-25 -63 -27 63 c-26 58 -30 62 -61 62 -19 0 -34 -2 -34
-5z"/>
</g>
</svg>
